<svg width="36" height="36" viewBox="0 0 36 36" fill="white" xmlns="http://www.w3.org/2000/svg">
<path d="M17.9851 3.00003C9.70509 3.00003 3.00009 9.72003 3.00009 18C3.00009 26.28 9.70509 33 17.9851 33C26.2801 33 33.0001 26.28 33.0001 18C33.0001 9.72003 26.2801 3.00003 17.9851 3.00003ZM18.0001 30C11.3701 30 6.00009 24.63 6.00009 18C6.00009 11.37 11.3701 6.00003 18.0001 6.00003C24.6301 6.00003 30.0001 11.37 30.0001 18C30.0001 24.63 24.6301 30 18.0001 30Z" fill="white"/>
<path d="M18.7501 10.5H16.5001V19.5L24.3751 24.225L25.5001 22.38L18.7501 18.375V10.5Z" fill="white"/>
</svg>
