<svg width="20" height="15" viewBox="0 0 30 25" fill="white" xmlns="http://www.w3.org/2000/svg">
<path d="M27 0H3C1.35 0 0.015 1.37109 0.015 3.04688L0 21.3281C0 23.0039 1.35 24.375 3 24.375H27C28.65 24.375 30 23.0039 30 21.3281V3.04688C30 1.37109 28.65 0 27 0ZM3 6.09375L15 13.7109L27 6.09375V21.3281H3V6.09375ZM15 10.6641L3 3.04688H27L15 10.6641Z" fill="white"/>
<path d="M27 0H3C1.35 0 0.015 1.37109 0.015 3.04688L0 21.3281C0 23.0039 1.35 24.375 3 24.375H27C28.65 24.375 30 23.0039 30 21.3281V3.04688C30 1.37109 28.65 0 27 0ZM3 6.09375L15 13.7109L27 6.09375V21.3281H3V6.09375ZM15 10.6641L3 3.04688H27L15 10.6641Z" stroke=""/>
</svg>
