<svg width="41" height="41" viewBox="0 0 41 41" fill="white" xmlns="http://www.w3.org/2000/svg">
<path d="M40.8687 15.6695C40.5536 14.7015 39.6985 13.9806 38.6898 13.8323L27.7923 12.2495L22.9192 2.37621C22.4694 1.46154 21.5203 0.870255 20.5008 0.870255C19.4803 0.870255 18.5297 1.46127 18.0791 2.37567L13.2072 12.2495L2.30744 13.8326C1.30038 13.9803 0.44561 14.7012 0.129599 15.6701C-0.184669 16.6395 0.0838427 17.7251 0.813272 18.4353L8.69825 26.1228L6.8387 36.9749C6.66445 37.979 7.08524 39.0154 7.9104 39.6146C8.37353 39.9515 8.92248 40.1297 9.49829 40.1297C9.93463 40.1297 10.3689 40.0226 10.7538 39.8205L20.5009 34.6962L30.2474 39.8205C30.6321 40.0227 31.0658 40.1297 31.5018 40.1297C32.0771 40.1297 32.6257 39.9516 33.0889 39.6146C33.914 39.0146 34.3351 37.9784 34.162 36.976L32.3005 26.1227L40.1869 18.4355C40.9179 17.7231 41.1856 16.637 40.8687 15.6695ZM39.398 17.6265L31.299 25.5211C31.166 25.651 31.105 25.8379 31.1366 26.0212L33.0487 37.1678C33.1492 37.7501 32.9044 38.3522 32.4246 38.7015C32.1558 38.8969 31.8367 39.0006 31.5018 39.0006C31.2482 39.0006 30.9963 38.9384 30.7732 38.821L20.7639 33.5583C20.6814 33.515 20.5913 33.4936 20.5009 33.4936C20.4105 33.4936 20.3202 33.515 20.238 33.5583L10.2283 38.821C9.70979 39.0932 9.04729 39.0455 8.57431 38.7012C8.09484 38.3531 7.85024 37.7512 7.95167 37.167L9.8618 26.0213C9.89316 25.8383 9.83246 25.6511 9.69941 25.5215L1.60146 17.6265C1.17725 17.2134 1.02115 16.5822 1.20358 16.0197C1.38741 15.4564 1.88531 15.0367 2.4707 14.9506L13.6636 13.3248C13.8475 13.298 14.0068 13.1825 14.0889 13.0156L19.0921 2.87518C19.3542 2.34338 19.9071 1.99977 20.5009 1.99977C21.0931 1.99977 21.6444 2.34312 21.9061 2.87545L26.9109 13.0156C26.9934 13.1825 27.1521 13.298 27.3363 13.3248L38.5266 14.9503C39.1138 15.0367 39.6115 15.456 39.7951 16.0203C39.9789 16.582 39.8234 17.2125 39.398 17.6265Z" fill="white" stroke="white"/>
</svg>
